/* XPM */
static char *result[] = {
/* columns rows colors chars-per-pixel */
"80 80 15 1 ",
"  c black",
". c #733121",
"X c #084A29",
"o c #214A29",
"O c #3A1952",
"+ c gray26",
"@ c gray39",
"# c #CE7321",
"$ c #10AD42",
"% c #21B54A",
"& c #9C7BA5",
"* c #848484",
"= c #FFBD8C",
"- c #FFFF8C",
"; c None",
/* pixels */
";;;;;     ;;;;;;;;;;;;     ;;;;;;;;;;;   ;;;;;;;;;;;;;;   ;;;;;;;;;;;     ;;;;;;",
";;;; $==$$ ;;;;;;;;;; $$==$ ;;;;;;;;;     ;;;;;;;;;;;;     ;;;;;;;;; $$$=$  ;;;;",
";;;  $  $$$  ;;;;;;  $$$  $  ;;;;;;;; ==== ;;;;;;;;;; ==== ;;;;;;;; $$==$ == ;;;",
";; =  ====$ = ;;;; = $====  = ;;;;;  =    =  ;;;;;;  =    =  ;;;;; $$ $$ ==$   ;",
";; = =    = = ;;;; = =    = = ;;;; =  $==$  = ;;;; =  $==$  = ;;; $$ =  ==$   ;;",
";; =        = ;;;; =        = ;;;; = $$==$$ = ;;;; = $$==$$ = ;;; $$ =$ $   ;;;;",
";; $$      $$ ;;;; $$      $$ ;;;; = $ $=$$ = ;;;; = $$=$ $ = ;;;; $ ==  = =  ;;",
";;; == == == ;;;;;; == == == ;;;;; $  $$=$$ $ ;;;; $ $$=$$  $ ;;;;;  == == == ;;",
";;; $= == =$ ;;;;;; $= == =$ ;;;;;;   $$$$   ;;;;;;   $$$$   ;;;;;;; $= ===$ ;;;",
";; $ $====$ $ ;;;; $ $====$ $ ;;;;; $ $$$ $ $ ;;;; $ $ $$$ $ ;;;;;;;  $ $$$ ;;;;",
"; =$        $ ;;;; $        $= ;;; =$ $$ $$ $ ;;;; $ $$ $$ $= ;;;;;; $      ;;;;",
"; =  $$$$ ==$ ;;;; $== $$$$  = ;;; = $  $$=$  ;;;;  $=$$  $ = ;;;;; $$ == $ ;;;;",
";;  $==== == ;;;;;; == ====$  ;;;;; $=====$$ ;;;;;; $$=====$ ;;;;;; $$ == = ;;;;",
";;;    $$$  ;;;;;;;;  $$$    ;;;;;;  $$$$$   ;;;;;;   $$$$$  ;;;;;;       $ ;;;;",
";;  $==      ;;;;;;      ==$  ;;;;;       ==  ;;;;  ==       ;;;;;;; ====   ;;;;",
";;;         ;;;;;;;;         ;;;;;;;         ;;;;;;         ;;;;;;;          ;;;",
";;;;;;;;;;;;;;;;;;;;;;     ;;;;;;;;;;;;;;;;;;;;;;;;;;;;;;;;;;;;;;;;;;;    ;;;;;;",
";;;;      ;;;;;;;;;;  $=$$$ ;;;;;;;;;;      ;;;;;;;;;;    ;;;;;;;;;;; $$$$ ;;;;;",
";;  $$$==$  ; ;;;;; == $==$$ ;;;;; ;  $==$$$  ;;;;;;; $$$$ ;;;;;;;;; $$==$$ ;;;;",
"; $$$==$$ ==  ;;;   $== $$ $$ ;;;;  == $$==$$$ ;;;;; $$$$$$ ;;;;;;;  $    $  ;;;",
"; $$$ $$ ==$  ;;;;   $==  = $$ ;;;  $== $$ $$$ ;;;;  $$==$$  ;;;;; =  ====  = ;;",
"; $$ =  ==$  ;;;;;;;   $ $= $$ ;;;;  $==  = $$ ;;; =        = ;;;; = =    = = ;;",
";; $ =$ $   ;;;;;;  = =  == $ ;;;;;;   $ $= $ ;;;; = ====== = ;;;; =        = ;;",
";; $ ==  = =  ;;;; == == ==  ;;;;;  = =  == $ ;;;; =        = ;;;; $$      $$ ;;",
";;;  == == == ;;;;; $=== =$ ;;;;;; == == ==  ;;;;; $        $ ;;;;  $$ $$ $$  ;;",
";;;; $= ===$ ;;;;;;; $$$ $  ;;;;;;; $=== =$ ;;;;;;   =    =   ;;;;  $= $$ =$  ;;",
";;;;        ;;;;;;;;      $ ;;;;;;;;        ;;;;;; $ = == = $ ;;;; $ $====$ $ ;;",
";;;  $$ == ;;;;;;;;; $ == $$ ;;;;;;;; == $$  ;;;; $$  ====  $$ ;;; $$      $$ ;;",
";; = $$ == ;;;;;;;;; = == $$ ;;;;;;;; == $$ = ;;; $$        $$ ;;; $   $$   $ ;;",
";; =  $$    ;;;;;;;; $       ;;;;;;;    $$  = ;;; $ == $$ == $ ;;;; ==    == ;;;",
";; ==   ==== ;;;;;;;   ==== ;;;;;;; ====   == ;;;;  ==    ==  ;;;;; ==    == ;;;",
";            ;;;;;;          ;;;;;;            ;;;;          ;;;;;;    ;;    ;;;",
";;  ;;    ;;  ;;;;  ;;     ;  ;;;;;;;;     ;;;;;;;;;;;;;;;;;;;;;;;;;;     ;;;;;;",
"; ==        == ;; ==  ====  == ;;;;;; $$==$  ;;;;;;;;;     ;;;;;;;;  $==$$ ;;;;;",
"; ==  ====  == ;; =  $    $  = ;;;;; $==$$ ==  ;;;;;  $$==$  ;;;;  == $$==$ ;;;;",
" $   $    $   $ ;; =  $$$$  = ;;;;; $$ $$ ==$   ;;  $$==$$ ==      $== $$ $$ ;;;",
" $ =  $$$$  = $ ;; = $$==$$ = ;;;;; $ =  ==$   ;; $$$$ $$ ==$  ;;   $==  = $ ;;;",
" $ = $$==$$ = $ ;; = $=$$ $ = ;;;; $$ =$      ;;; $$$ =  ==$  ;;;;      $= $$ ;;",
";  = $ $$=$ =  ;;; $  $$$$  $ ;;;; $$ ==  = =  ;;; $$ =$      ;;;  = =  == $$ ;;",
";; $  $$$$  $ ;;;;;    $$$   ;;;;;;   == == == ;;;; $ ==   ==  ;; == == ==   ;;;",
";;;   $$$ $   ;;;;;  $$ $$ $ ;;;;;;;; $= ===$   ;;;;  == == == ;   $=== =$ ;;;;;",
";;; = $$ $=$ ;;;;;; $=$$  $= ;;;;;;;;         = ;;;;; $= ===$    =         ;;;;;",
";;; $=  $=$$ ;;;;;; $$=$$$=$ ;;;;;;; $$ $$$$ == ;;;;;         =  == $$$$ $$ ;;;;",
";;; $$===$   ;;;;;;   $===$$ ;;;;;; $=== $$$ = ;;;   $$ $$$$ == ; = $$$ ===$ ;;;",
";;;   $$$ == ;;;;;; == $$$   ;;;;; $$$$$$     ;;; = $=== $$$ = ;;;     $$$$$$ ;;",
";;  ==    ==  ;;;;  ==    ==  ;;;;        ;;;;;;; =  $$       ;;;;;;;;        ;;",
";;        $$  ;;;;  $$        ;;;; ====  ;;;;;;;; ==   === ;;;;;;;;;;;;  ==== ;;",
";;;          ;;;;;;          ;;;;          ;;;;;;           ;;;;;;;;;          ;",
";;;;;;;;;;;;;;;;;;;     ;;  ;;;;;;;;;;;;;;;;;;;;;;;;;;;;;;;;;;;;+*@@+@@++*@@+@@@",
";;;;;     ;;;;;;;; $=$ =  == ;;;;;;;;;;;;;;;;;;;;;;;;;;;;;;;;;;;@+*@@@*+++*@@@@@",
";;;  $==$$  ;;;;; $=    =  = ;;;;;;;;;;;;;;;;;;;;;;;;;;;;;;;;;;;@@+***+@@@+*@+@@",
"   == $$==$$  ;; $=   =$  $  ;;;;;;;;;;;;;;;;;;;;;;;;;;;;;;;;;;;@@++++@@@@@+*@+@",
";  $== $$ $$$$ ; =  ====$ $$ ;;;;;;;;   ; ;;;;;;;;;;;;;;;;;;;;;;@@++@@@@+@*++@@@",
";;  $==  = $$$ ; $  ==  =  $  ;;;;;; $$= = ;;;;;;;;;;;;;;;;;;;;;@*+@@+@@@*+++*@@",
";;      $= $$ ;;   ==  $= $ == ;;;;; $== $ ;;;;;;;;;;;;  ;;;;;;;*+@@+@@@*+@@@+**",
";  ==   == $ ;;; = $= $= $$ == ;;;;; == $ = ;;;;;;;;;; == ;;;;;;++@+@@@*+@@@@@++",
"; == == ==  ;;;;; = $== $$= $= ;;;;;;  $$ = ;;;;;;;;;; == ;;;;;;++*@@@*+@@@@@@*+",
"   $=== =$ ;;;;;;      $$=  =$ ;;;;; =$    ;;;;;;;;;;;;  ;;;;;;;@@+***+@@@@+@*+@",
" =         ;;;;; = $$ $$=     ;;;;;;;  == ;;;;;;;;;;;;;;;;;;;;;;@@@+++@@@@+@*+@@",
" == $$$$ $$   ;; == $$      $ ;;;;;;;;;  ;;;;;;;;;;;;;;;;;;;;;;;@@@@+@@+@+@*++@@",
"; = $$$ ===$ = ;;     ==$= $ ;;;;;;;;;;;;;;;;;;;;;;;;;;;;;;;;;;;@+@@+*@@@@*+++@@",
";;       $$  = ;;;;;; ===$  ;;;;;;;;;;;;;;;;;;;;;;;;;;;;;;;;;;;;@@+@@+****+@@+*@",
";;;;; ===   == ;;;;;;;    ;;;;;;;;;;;;;;;;;;;;;;;;;;;;;;;;;;;;;;@@@+@@++++@@@@+*",
";;;;           ;;;;;;;;;;;;;;;;;;;;;;;;;;;;;;;;;;;;;;;;;;;;;;;;;*@@@@@@++@@@@@@+",
";;;;;;;;;;;;;;;;;;;;;;     ;;;;;                ;;;;;XXXXXX;;;;;;;;;;;;;;;;;;;;;",
";;;;;;;; ;;;;;;;;;;;; ##### ;;;; &&OOOOOOOOOOOO ;;;XX%%X%%%XX;;;;;;;;;;;;;;;;;;;",
";;;;;;; % ;;;;;;;;;; ##...## ;;; OO&OOOOOOOOO   ;;X%%%-X%%%%-X;;;;;;;;;;;;;;;;;;",
";;;;;; %%% ;;;;;;;;  #.   .#  ;; OOO&&&&&&&&    ;X%--XXXXXX%%-X;;;;;;;;;;;;;;;;;",
";;;;;  %%%  ;;;;;; . #.   .# . ; OOO&OOOOOO&    X%-XXX    XXX%-X;;;;;;;;;;;;;;;;",
";;;;; % % % ;;;;;; . ##   ## . ; OOO&O&&&&O&    X-XX        XX%X;;;;;;;;;;;;;;;;",
";;;;; %% oo ;;;;; .. .#####. ..  OOO&O&&&&O&    X-X          XXX;;;;;;;;;;;;;;;;",
";;;;; %% oo ;;;;; ... .###. ...  OOO&O&&&&O&    X-X          X%X;;;;;;;;;;;;;;;;",
";;;;; %% oo ;;;;;  ...     ....  OOO&O&&&&O&    X%X          X%X;;;;;;;;;;;;;;;;",
";;;;; %% oo ;;;;;  ...#####...   OOO&OOOOOO&    XXX          X%X;;;;;;;;;;;;;;;;",
";;;;; % % o ;;;;; . ...###... .  OOO&&&&&&&&    X%X          X-X;;;;;;;;;;;;;;;;",
";;;;;  %oo  ;;;;; .#  .....  #.  OOO        &   X-%X        X-%X;;;;;;;;;;;;;;;;",
";;;;;; ooo ;;;;;;; ###     ### ; OO          &  ;X-%%X    X--%X;;;;;;;;;;;;;;;;;",
";;;;;;; o ;;;;;;;; .#########. ; O            & ;;X-%%%%X-%%%X;;;;;;;;;;;;;;;;;;",
";;;;;;;; ;;;;;;;;;;  .#####.  ;;              & ;;;XX%%%X%%XX;;;;;;;;;;;;;;;;;;;",
";;;;;;;;;;;;;;;;;;;;;       ;;;;                ;;;;;XXXXXX;;;;;;;;;;;;;;;;;;;;;"
};
