/* XPM */
static char *result[] = {
/* columns rows colors chars-per-pixel */
"944 16 13 1 ",
"  c black",
". c #274628",
"X c #3D5C3E",
"o c #527253",
"O c #678768",
"+ c #7D9D7E",
"@ c #92B293",
"# c #A7C8A8",
"$ c #BCDDBD",
"% c #D2E8D3",
"& c #E9F4E9",
"* c white",
"= c None",
/* pixels */
"======================      =======    ==    =======        ======================    ====    ========  ==============    ============    ============    ============    ================================================================================    ====            ======      ========            ====            ====    ==    ======            ====          ======            ====            ====            ====================================================================================            ======        ======            ====            ====            ====         =======            ====            ====            ====    ====    ====            ======          ====    ====    ====    ============      ==    ====            ====            ====            ====            ====            ====            ====            ====    ====    ====    ====    ====    ======  ====    ====    ====    ====    ====            ==",
"=====================        =====  XX    XX  ====   XXXXXX   ===================      ==      ======    ============      ==========      ==========      ==========      ============  ================================================================      ==              ====        ======              ==              ==            ====              ==            ====              ==              ==              =======    ============    =============    =========================    =========              ===   XXXXXX   ===              ==              ==              ==           =====              ==              ==              ==      ==      ==              ====            ==      ==      ==      ==========              ==              ==              ==              ==              ==              ==              ==              ==      ==      ==      ==      ==      ====    ==      ==      ==      ==      ==              =",
"====================   *OOO   ===  X*OX  X*OX  ==  XoOOOOOOoX  ====    ==    ===   *O      *O   ====      ==========   *O   ========  X*OX  ========  X*OX  ========   *O   ==========    ==============================================================   *O      *OOOOOOOOO   ==   *OOO   ====   *OOOOOOOOO      *OOOOOOOOO      *O    *O   ==   *OOOOOOOOO      *OOOOOOO   ==   *OOOOOOOOO      *OOOOOOOOO      *OOOOOOOOO   =====      ==========      ===========      =======================      =======   *OOOOOOOOO   =  XoOOOOOOoX  =   *OOOOOOOOO      *OOOOOOOOO      *OOOOOOOOO      *OOOOO    ===   *OOOOOOOOO      *OOOOOOOOO      *OOOOOOOOO      *O      *O      *OOOOOOOOO   ==   *OOOOOOO      *O      *O      *O   ========   *OOO    *O      *OOOOOOOOO      *OOOOOOOOO      *OOOOOOOOO      *OOOOOOOOO      *OOOOOOOOO      *OOOOOOOOO      *OOOOOOOOO      *O      *O      *O      *O      *O   ==  *O     *O      *O      *O      *O      *OOOOOOOOO   ",
"====================  ++++++  ===  +##+  +##+  == XO++++++++OX ===            ==  ++++    ++++  ===   *+  ==========  ++++  =======  X++++o ======== o++++X  ======   ++++   ========      ============================================================   ++++    ++++++++++++  ==  ++++++  ====   +++++++++++     +++++++++++    ++++  ++++  ==  +++++++++++     +++++++++   ==   +++++++++++    ++++++++++++    ++++++++++++  ====   *O   ========   *O   =========   *O   =======        ======   *O   ======   +++++++++++  = XO++++++++OX =  ++++++++++++    ++++++++++++    +++++++++++     +++++++++   ==  +++++++++++     +++++++++++     +++++++++++     ++++    ++++     ++++++++++   ==   +++++++++    ++++    ++++    ++++  ========  ++++++  ++++    ++++++++++++    ++++++++++++    ++++++++++++    ++++++++++++    ++++++++++++    +++++++++++      ++++++++++     ++++    ++++    ++++    ++++    ++++  ==  ++    ++++    ++++    ++++    ++++     ++++++++++   ",
"====================  ######  ===  #%%#  #%%#  =  o##+o   o##o  =   *#    *#   =  ####   #####  ==   ###      ======  ####  ======  X#####o ======== o#####X  ====   ######   =======  *$  ===========================================================   #####    ####    ####  ==  ######  =====         ####  =         ####    ####  ####  ==  ####         =  ####        ===         ####    ####    ####    ####    ####  ====  ++++  ========  ++++  ========   +++   ======          =====   +++   ======         ####    o##+o   X##o    ####    ####    ####    ####    #####        =  ##########   =  ####         =  ####         =  ####         =  ####    ####  =     ####     ====       ####    ####   #####    ####  ========  ############    ####    ####    ####    ####    ####    ####    ####    ####    ####    ####    ####         ==     ####     =  ####    ####    ####    ####    ####      ##    ####    ####    ####    ####  =        ###   =",
"====================  $$$$$   ===  +##+  +##+  = X@$+     o$$@X =  $$$$  $$$$  =   $$   $$$$$   =   $$$$       =====  $$$   ======  +$$$$X  ========  X$$$$+  ===   $$$$$$$$   ====    %%    =======================        =========================   $$$$$     $$$$    $$$$  ==   $$$$$  =====         $$$$  ==        $$$     $$$$  $$$$   =  $$$$         =  $$$$         ===        $$$$     $$$    $$$     $$$$    $$$$  ====  ####  ========  ####  =======   ###   ======   *#####   =====   ###   ======        $$$$   X@$+      X$@X   $$$$    $$$$    $$$$   $*$$     $$$$        ==  $$$$$$$$$$$     $$$$        ==  $$$$        ==  $$$$         =  $$$$    $$$$  ==    $$$$    ======      $$$$    $$$$  $$$$$     $$$$  ========  $$$$$$$$$$$$    $$$$    $$$$    $$$$    $$$$    $$$$    $$$$    $$$$    $$$$    $$$$    $$$     $$$$         ===    $$$$    ==  $$$$    $$$$    $$$$    $$$$    $$$$      $$     $$$$  $$$$     $$$$    $$$$  ==      $$$   ==",
"====================  %%%%   ====  XOOX  XOOX  = X$%o o@%%%%%$X =  %%%%%%%%%%  ==      %%%%%   =   %%%%%%%%%%   ====  %%   ======= X%%%$o  ==========  o$%%%X ==   %%%%%%%%%%   ==     &&     =====================          =======================   %%%%%   =  %%%%    %%%%  ===   %%%%  ====   %%%%%%%*%%%  ====  %%%%*%   =  %%%%%%*%%%%     %%%%%%%%%%%     %%%%%%%%%%%   ======   %*%%%  =   %%%%%%*%   =  %%%%%%%%*%%%  ====   $$   ========   $$   ======   $$$   =======   $$$$$$   ======   $$$   =====   *%%%%*%%%   X$%o o@$@O %$X   %%%%%%%%*%%%    %%%%%%%%%%   =  %%%%  ========  %%%%   %%%%O    %%%%%%%%  ====  %%%%%%%  =====  %%%%  %%%%%     %%%%%%%%*%%%  ====  %%%%  ======    ==  %%%%    %%%%%%%%%%   =  %%%%  ========  %%%%%%%%%%%%    %%%%    %%%%    %%%%    %%%%    %%%%%%%%*%%%    %%%%    %%%%    %%%%%%%%*%   =  %%%%%%%%%%%   ====  %%%%  ====  %%%%    %%%%    %%%%    %%%%    %%%%  *%  %%  =   %%%%%%%%   =  %%%%%%%%%%%%  ====   %%%   ===",
"====================   &&   ======  XX    XX  == X&&  @&&&&&&&X =   &&&&&&&&   ===    &&&&&   ==  &&&&&&&&&&&&  ====      ======== X&&&#. ============ .#&&&X ==   &&&&&&&&&&   =   &&&&&&&&   =======    ========   *&&&&&   ========    =========   &&&&&   ==  &&&&    &&&&  ====  &&&&  ====  &&&&&&&&&&&   ====  &&&&&&   =   &&&&&&&&&&      &&&&&&&&&&&    &&&&&&&&&&&&  =====   &&&&&   =   &&&&&&&&   =   &&&&&&&&&&&  =====      ==========      ======   %%%   =========          ========   %%%   ====  &&&&&&&&&    X&&  @&X   &$X   &&&&&&&&&&&&    &&&&&&&&&&   =  &&&&  ========  &&&&    &&&&    &&&&&&&&  ====  &&&&&&&  =====  &&&&  &&&&&&    &&&&&&&&&&&&  ====  &&&&  =====      =  &&&&    &&&&&&&&&&   =  &&&&  ========  &&&&&&&&&&&&    &&&&    &&&&    &&&&    &&&&    &&&&&&&&&&&     &&&& && &&&&    &&&&&&&&&&   =   &&&&&&&&&&&  ====  &&&&  ====  &&&&    &&&&    &&&&    &&&&    &&&& &&&& &&  =   &&&&&&&&   =   &&&&&&&&&&&  ===   &&&   ====",
"=====================      ========    ==    === X&&  @&******X ==   &&&&&&   ====   &&&&&    ==  &&&&&&&&&&&&  =====    ========= X&**#. ============ .#**&X ===   &&&&&&&&   ==   &&&&&&&&   ======      =======   &&&&&&   =======      =======   &&&&&   ===  &&&&    &&&&  ====  &&&&  ====  &&&&         ===        &&&   =       &&&&   ==         &&&&    &&&&    &&&&  ====   &&&&&   =   &&&    &&&   =         &&&&  =====      ==========      ======   &&&   =========          ========   &&&   ====  &&&&       = X&&  @$OXXO$@X   &&&&    &&&&    &&&&   &&&&     &&&&        ==  &&&&    &&&&    &&&&        ==  &&&&     =====  &&&&    &&&&    &&&&    &&&&  ====  &&&&  ====   *&     &&&&    &&&&  &&&&&     &&&&        ==  &&&& &&&& &&    &&&&    &&&&    &&&&    &&&&    &&&&         =  &&&& &&&*&&&    &&&&    &&&   =         &&&&  ====  &&&&  ====  &&&&    &&&&    &&&&    &&&&    &&&&&&&&&&*&     &&&&  &&&&   =         &&&&  ==   &&&      ==",
"=====================      ===================== X$&o o@&&&&&$X ===   &&&&   ====   &&&&&      =   &&&&&&&&&&   ======  ========== X%&&$o  ==========  o$&&%X ===   &&&&&&&&   ===     %%     ======   *&   =======          =======   *&   =====   &&&&&   ====  &&&&    &&&&  ====  &&&&  ====  &&&&         ==         &&&&  ==      &&&&  ===         &&&&    &&&&    &&&&  ====  &&&&&   ==  &&&&    &&&&  ==        &&&&  ====   *&   ========   *&   ======   &&&   =======   *&&&&&   ======   &&&   =====   &&       == X$&o o+$$$$+o    &&&&    &&&&    &&&&    &&&&    &&&&&        =  &&&&    &&&&    &&&&         =  &&&&    ======  &&&&    &&&&    &&&&    &&&&  ====  &&&&  ====  &&&&    &&&&    &&&&   &&&&&    &&&&         =  &&&&  &&  &&    &&&&    &&&&    &&&&    &&&&    &&&&        ==  &&&&  &&&&&     &&&&    &&&&  =         &&&&  ====  &&&&  ====  &&&&    &&&&    &&&&    &&&&    &&&&&&&&&&&&    &&&&    &&&&  =         &&&&  =   &&&        =",
"====================   *%   ==================== X@%+     o%%@X ====   %%   ====   %%%%%   *%   =   %%%%       ===================  @%%%+X  ========  X+%%%@  ==   %*%%%%%%%%   ===    $$    =======  &&&&  ========        ========  &&&&  ====   %%%%%   =====  %%%%%%%%*%%%  ====  %%%%  ====  %%%%%%%%%%%      %%%%%%%*%%%  ======  %%%%  ==   %%%%%%%*%%%    %%%%%%%%*%%%  ====  %%%%   ===  %%%%%%%%*%%%  ==   %%%%%*%%%  ====  &&&&  ========  &&&&  =======   &&&   ======   &&&&&&   =====   &&&   =======      ======= X@%+             %%%%    %%%%    %%%%%%%%*%%%    %%%%%%%%%%%     %%%%%%%%*%%%    %%%%%%%%%%%     %%%%  ========  %%%%%%%%%%%%    %%%%    %%%%  ==    %%%%    ==  %%%%%%%%%%%%    %%%%    %%%%    %%%%%%%%%%%     %%%%      %%    %%%%    %%%%    %%%%%%%%*%%%    %%%%  ========  %%%%%%%%%%   =  %%%%    %%%%     %%%%%%%*%%%  ====  %%%%  ====  %%%%%%%%*%%%    %%%%%  %*%%%    %%%%%%%%%%%%    %%%%    %%%%     %%%%%%%*%%%     %%%%%%%%%%   ",
"====================  $$$$  ====================  o#$+o   o$#o  =====      =====  $$$$$   $$$$  ==   $$$      ====================  X@$$$+. ======== .+$$$@X  ==  $$$$$$$$$$$$  =====  ##  =========  %%%%  ========================  %%%%  ====  $$$$$   ======  $$$$$$$$$$$$  ===   $$$$   ===  $$$$$$$$$$$$    $$$$$$$$$$$$  ======  $$$$  ==  $$$$$$$$$$$$    $$$$$$$$$$$$  ====  $$$$  ====  $$$$$$$$$$$$  ==  $$$$$$$$$$  ====  %%%%  ========  %%%%  ========   %%%   ======          =====   %%%   ========      =======  o#$+o        =  $$$$    $$$$    $$$$$$$$$$$$    $$$$$$$$$$$$    $$$$$$$$$$$O    $$$$$$$$$$$$    $$$$  ========  $$$$$$$$$$$$    $$$$    $$$$  =     $$$$     =  $$$$$$$$$$$$    $$$$    $$$$    $$$$$$$$$$$$    $$$$      $$    $$$$    $$$$    $$$$$$$$$$$$    $$$$  ========  $$$$$$$$$$   =  $$$$    $$$$    $$$$$$$$$$$$  ====  $$$$  ====  $$$$$$$$$$$$     $$$$$$$$$$     $$$$$$$$$$$$    $$$$    $$$$    $$$$$$$$$$$     $$$$$$$$$$$$  ",
"====================  ####  ===================== XO@######@OX =======    ======  ####    ####  ===   ##  =========================  X+##O. ======== .O##+X  ===  ####    ####  =====      =========   $$$  ========================   $$   ====  ####   =======  ############  ==   ######   ==  ############    ############  ======  ####  ==  ############    ############  ====  ####  ====  ############  ==  ##########  ====   $$   ========   $$$  =========   $$   =======        ======   $$   ========   *#   ======= XO@######  ===  ####    ####    ############    ############    ##########+     ############    ####  ========  ############    ####    ####     ##########     ############    ####    ####    ############    ####  ==  ##    ####    ####    ############    ####  ========  ######  ###     ####    ####    ############  ====  ####  ====  ############  =   ########   =  ######  ####    ####    ####    ##########   =  ############  ",
"====================   ++   =====================  Xo++++++oX  ========  =======   ++      ++   ====      ==========================  XooX  ========  XooX  ====   ++      ++   ======    ===========   ##  =========================      =====   ++   ========   ++++++++++   ==   ++++++   ==   ++++++++++      ++++++++++   ======   ++   ==   ++++++++++      ++++++++++   ====   ++   ====   ++++++++++   ==   ++++++++   =====      ==========   ##  ==========      =======================      =========   ++   =======  Xo++++++  ===   ++      ++      ++++++++++      ++++++++++      ++++++++O   =   ++++++++++      ++   ========   ++++++++++      ++      ++      ++++++++++      ++++++++++      ++      ++      ++++++++++      ++   ==  ++     ++      ++      ++++++++++      ++   ========   ++++    ++      ++      ++      ++++++++++   ====   ++   ====   ++++++++++   ==   ++++++   ==   ++++    ++      ++      ++      ++++++++   ==   ++++++++++   ",
"=====================      =======================   XXXXXX   ===================      ==      ======    ============================      ==========      ======      ==      ========  =============      ==========================    =======      ==========              ====          ====              ==              ========      ====              ==              ======      ======              ====            =======    ============      ===========    =========================    ===========      =========   XXXXXX  ====      ==      ==              ==              ==             ===              ==      ==========              ==      ==      ==              ==              ==      ==      ==              ==      ====    ==      ==      ==              ==      ==========              ==      ==      ==              ======      ======              ====          ====              ==      ==     ===            ====              =",
"======================    ==========================        ======================    ====    ========  ==============================    ============    ========    ====    =========================    =======================================    ============            ======        ======            ====            ==========    ======            ====            ========    ========            ======          =========================    =========================================================    ============        ======    ====    ====            ====            ====           =====            ====    ============            ====    ====    ====            ====            ====    ====    ====            ====    ======  ====    ====    ====            ====    ============      ==    ====    ====    ====            ========    ========            ======        ======      ==    ====    ====    ====          ======            =="
};
